<svg width="516" height="170" viewBox="0 0 516 170" fill="none" xmlns="http://www.w3.org/2000/svg">
<path d="M48.9736 3.1582L48.5342 21.791L35.4385 22.3184L32.0986 63.9785L13.5537 64.9453L13.6416 23.2852L0.545898 23.9883L1.07324 3.24609L48.9736 3.1582ZM93.0068 2.63086C92.8311 5.38477 92.6699 8.10938 92.5234 10.8047C92.377 13.5 92.1865 16.2246 91.9521 18.9785L73.3193 19.9453L72.8799 25.4824H85.9756L85.0088 39.1055L71.8252 39.5449L71.3857 45.9609H82.2842H90.0186C89.8428 49.1836 89.6523 52.3916 89.4473 55.585C89.2715 58.749 89.1104 61.9277 88.9639 65.1211L51.083 66L52.4893 2.63086H93.0068ZM136.776 4.21289L134.315 22.7578C133.466 22.5234 132.616 22.3623 131.767 22.2744C130.917 22.1865 130.067 22.1426 129.218 22.1426C127.05 22.1426 124.984 22.4355 123.021 23.0215C121.059 23.5781 119.315 24.4424 117.792 25.6143C116.298 26.7861 115.097 28.251 114.188 30.0088C113.31 31.7666 112.87 33.832 112.87 36.2051C112.87 37.7285 113.104 39.0469 113.573 40.1602C114.071 41.2734 114.76 42.1963 115.639 42.9287C116.518 43.6611 117.558 44.2031 118.759 44.5547C119.96 44.9062 121.278 45.082 122.714 45.082C123.798 45.082 124.926 44.9648 126.098 44.7305C127.27 44.4961 128.427 44.1885 129.569 43.8076C130.712 43.4268 131.825 42.9873 132.909 42.4893C133.993 41.9912 134.989 41.4785 135.897 40.9512L134.14 61.6055C132.997 62.1914 131.752 62.7188 130.404 63.1875C129.086 63.627 127.724 64.0225 126.317 64.374C124.911 64.6963 123.505 64.9453 122.099 65.1211C120.692 65.2969 119.345 65.3848 118.056 65.3848C114.335 65.3848 110.863 64.6963 107.641 63.3193C104.418 61.9424 101.62 60.0527 99.2471 57.6504C96.874 55.248 94.999 52.4209 93.6221 49.1689C92.2744 45.8877 91.6006 42.3574 91.6006 38.5781C91.6006 33.5684 92.3184 28.8516 93.7539 24.4277C95.1895 19.9746 97.2988 16.0781 100.082 12.7383C102.865 9.39844 106.308 6.76172 110.409 4.82812C114.54 2.89453 119.286 1.92773 124.647 1.92773C126.669 1.92773 128.734 2.08887 130.844 2.41113C132.982 2.7334 134.96 3.33398 136.776 4.21289ZM191.708 66L169.735 67.0547L169.56 46.752H159.452L158.837 66H139.149L140.819 4.21289L161.737 5.17969L160.419 36.7324H170.175L170.263 2.80664L190.302 3.33398L191.708 66ZM258.461 42.6211C258.461 46.6348 257.758 50.1504 256.352 53.168C254.975 56.1562 253.07 58.6465 250.639 60.6387C248.236 62.6309 245.409 64.125 242.157 65.1211C238.935 66.1172 235.463 66.6152 231.742 66.6152C230.307 66.6152 228.725 66.4248 226.996 66.0439C225.297 65.6631 223.568 65.1943 221.811 64.6377C220.053 64.0518 218.354 63.4365 216.713 62.792C215.102 62.1182 213.666 61.4883 212.406 60.9023L214.34 42.7969C216.83 44.291 219.584 45.4336 222.602 46.2246C225.648 46.9863 228.637 47.3672 231.566 47.3672C232.123 47.3672 232.797 47.3525 233.588 47.3232C234.379 47.2646 235.126 47.1328 235.829 46.9277C236.562 46.6934 237.177 46.3564 237.675 45.917C238.173 45.4775 238.422 44.8477 238.422 44.0273C238.422 43.4707 238.246 43.002 237.895 42.6211C237.543 42.2109 237.089 41.8887 236.532 41.6543C235.976 41.3906 235.346 41.2002 234.643 41.083C233.939 40.9365 233.251 40.834 232.577 40.7754C231.903 40.7168 231.273 40.6875 230.688 40.6875C230.102 40.6875 229.633 40.6875 229.281 40.6875C226.762 40.6875 224.462 40.248 222.382 39.3691C220.331 38.4902 218.559 37.2744 217.064 35.7217C215.6 34.1396 214.457 32.2793 213.637 30.1406C212.816 27.9727 212.406 25.6289 212.406 23.1094C212.406 19.6523 213.095 16.5615 214.472 13.8369C215.878 11.083 217.738 8.75391 220.053 6.84961C222.396 4.91602 225.077 3.43652 228.095 2.41113C231.112 1.38574 234.232 0.873047 237.455 0.873047C238.891 0.873047 240.37 0.931641 241.894 1.04883C243.417 1.13672 244.926 1.3125 246.42 1.57617C247.943 1.83984 249.423 2.17676 250.858 2.58691C252.294 2.99707 253.656 3.50977 254.945 4.125L253.275 21.9668C251.283 21.293 249.188 20.7363 246.991 20.2969C244.823 19.8281 242.699 19.5938 240.619 19.5938C240.238 19.5938 239.74 19.6084 239.125 19.6377C238.539 19.6377 237.909 19.6816 237.235 19.7695C236.591 19.8281 235.932 19.9307 235.258 20.0771C234.584 20.2236 233.983 20.4287 233.456 20.6924C232.929 20.9268 232.504 21.249 232.182 21.6592C231.859 22.0693 231.713 22.5527 231.742 23.1094C231.771 23.7539 232.006 24.2812 232.445 24.6914C232.914 25.0723 233.5 25.3799 234.203 25.6143C234.936 25.8193 235.727 25.9658 236.576 26.0537C237.455 26.1416 238.319 26.2002 239.169 26.2295C240.019 26.2295 240.81 26.2295 241.542 26.2295C242.274 26.2002 242.875 26.2148 243.344 26.2734C245.688 26.4199 247.797 26.918 249.672 27.7676C251.547 28.6172 253.129 29.7451 254.418 31.1514C255.736 32.5576 256.732 34.2422 257.406 36.2051C258.109 38.1387 258.461 40.2773 258.461 42.6211ZM315.985 62.2207L294.188 65.0332L291.552 55.1016H281.532L279.335 65.0332L256.923 62.8359L274.413 4.30078L298.847 3.07031L315.985 62.2207ZM289.97 41.6543L286.63 26.3613L283.378 41.6543H289.97ZM384.848 1.92773L380.805 66.4395L360.766 67.3184L360.941 33.3047L351.889 60.7266H344.154L337.211 36.2051L337.123 64.6816L316.82 65.2969L317.699 4.56445L340.287 3.68555L349.252 32.7773L361.205 1.92773H384.848ZM456.039 1.92773L451.996 66.4395L431.957 67.3184L432.133 33.3047L423.08 60.7266H415.346L408.402 36.2051L408.314 64.6816L388.012 65.2969L388.891 4.56445L411.479 3.68555L420.443 32.7773L432.396 1.92773H456.039ZM515.761 6.49805L491.591 40.248L490.448 67.7578H469.618L470.146 40.4238L457.577 7.81641L479.989 5.00391L483.505 23.9883L494.667 5.00391L515.761 6.49805ZM251.122 161L229.149 162.055L228.974 141.752H218.866L218.251 161H198.563L200.233 99.2129L221.151 100.18L219.833 131.732H229.589L229.677 97.8066L249.716 98.334L251.122 161ZM314.359 128.305C314.359 132.758 313.524 137.006 311.854 141.049C310.214 145.092 307.738 148.637 304.428 151.684L310.492 158.891L294.408 169.262L290.629 158.891C289.516 159.125 288.388 159.301 287.245 159.418C286.132 159.535 285.004 159.594 283.861 159.594C281.049 159.594 278.354 159.242 275.775 158.539C273.197 157.836 270.78 156.854 268.524 155.595C266.269 154.306 264.218 152.753 262.372 150.937C260.526 149.12 258.93 147.099 257.582 144.872C256.264 142.646 255.238 140.243 254.506 137.665C253.803 135.058 253.451 132.348 253.451 129.535C253.451 126.752 253.788 124.057 254.462 121.449C255.165 118.812 256.146 116.337 257.406 114.022C258.695 111.708 260.233 109.599 262.021 107.694C263.837 105.761 265.858 104.105 268.085 102.729C270.312 101.322 272.714 100.238 275.292 99.4766C277.87 98.7148 280.58 98.334 283.422 98.334C287.963 98.334 292.123 99.0225 295.902 100.399C299.711 101.776 302.978 103.754 305.702 106.332C308.427 108.91 310.551 112.06 312.074 115.78C313.598 119.472 314.359 123.646 314.359 128.305ZM293.002 129.535C293.002 128.188 292.797 126.884 292.387 125.624C292.006 124.335 291.435 123.207 290.673 122.24C289.911 121.244 288.959 120.453 287.816 119.867C286.674 119.281 285.355 118.988 283.861 118.988C282.396 118.988 281.078 119.252 279.906 119.779C278.734 120.277 277.724 120.98 276.874 121.889C276.054 122.797 275.409 123.866 274.94 125.097C274.501 126.327 274.281 127.66 274.281 129.096C274.281 130.443 274.472 131.776 274.853 133.095C275.263 134.384 275.849 135.556 276.61 136.61C277.372 137.636 278.324 138.471 279.467 139.115C280.609 139.76 281.928 140.082 283.422 140.082C284.857 140.082 286.161 139.804 287.333 139.247C288.534 138.661 289.545 137.885 290.365 136.918C291.215 135.951 291.859 134.838 292.299 133.578C292.768 132.289 293.002 130.941 293.002 129.535Z" fill="white"/>
</svg>
